<svg version="1.1" id="Layer_1" xmlns="http://www.w3.org/2000/svg" xmlns:xlink="http://www.w3.org/1999/xlink" x="0px" y="0px"
	 width="100%" viewBox="0 0 2048 2048" enable-background="new 0 0 2048 2048" xml:space="preserve">
<path fill="#1F7D62" opacity="1.000000" stroke="none" 
	d="
M1124.000000,2049.000000 
	C749.333313,2049.000000 375.166656,2049.000000 1.000000,2049.000000 
	C1.000000,1366.333374 1.000000,683.666687 1.000000,1.000000 
	C683.666687,1.000000 1366.333374,1.000000 2049.000000,1.000000 
	C2049.000000,683.666687 2049.000000,1366.333374 2049.000000,2049.000000 
	C1740.833374,2049.000000 1432.666626,2049.000000 1124.000000,2049.000000 
M331.205658,1162.397705 
	C355.526428,1203.580444 387.669373,1237.267578 428.077698,1262.899536 
	C488.436432,1301.186279 554.243225,1315.665894 624.891418,1305.494995 
	C689.629028,1296.175049 744.899780,1266.950928 789.742249,1219.649658 
	C855.016785,1150.796143 881.342468,1068.342163 866.352112,974.788879 
	C852.089111,885.774414 804.254883,817.971497 726.518311,772.053772 
	C670.810913,739.148254 610.329651,727.697449 546.254333,735.386719 
	C505.858124,740.234436 468.087738,753.078674 433.582886,774.841980 
	C380.135529,808.552917 338.766937,853.267395 315.228333,912.246948 
	C281.205627,997.495911 287.210571,1080.985840 331.205658,1162.397705 
M1013.803345,1051.499756 
	C1013.803345,1067.601318 1013.803345,1083.702881 1013.803345,1099.977051 
	C1024.601562,1099.977051 1035.032104,1099.977051 1045.743408,1099.977051 
	C1045.743408,1072.956177 1045.743408,1046.192505 1045.743408,1018.907349 
	C1077.556030,1018.907349 1109.093140,1018.907349 1140.552734,1018.907349 
	C1140.552734,1009.326782 1140.552734,1000.275513 1140.552734,990.828308 
	C1108.769165,990.828308 1077.382935,990.828308 1046.032227,990.828308 
	C1046.032227,970.325684 1046.032227,950.232849 1046.032227,929.395386 
	C1081.798950,929.395386 1117.316772,929.395386 1152.959106,929.395386 
	C1152.959106,919.534302 1152.959106,910.420898 1152.959106,901.270142 
	C1106.501953,901.270142 1060.289795,901.270142 1013.807617,901.270142 
	C1013.807617,951.247864 1013.807617,1000.873657 1013.803345,1051.499756 
M1539.386108,1093.088013 
	C1552.125854,1102.131470 1566.598999,1104.272949 1581.711792,1103.437866 
	C1598.807373,1102.493286 1613.219727,1096.003052 1624.375000,1080.712158 
	C1624.796265,1087.937988 1625.136597,1093.776978 1625.481445,1099.694336 
	C1635.457275,1099.694336 1645.002563,1099.694336 1654.440796,1099.694336 
	C1654.643921,1099.018677 1654.818115,1098.709961 1654.817871,1098.401367 
	C1654.802856,1065.749756 1655.426758,1033.080688 1654.547974,1000.452026 
	C1653.800659,972.707825 1639.307007,955.541138 1613.186279,949.415955 
	C1589.483765,943.857849 1566.510742,947.104980 1544.445923,956.968689 
	C1539.677734,959.100159 1535.353760,962.225708 1530.815063,964.899292 
	C1534.752563,972.911194 1538.320312,980.170593 1542.013184,987.684631 
	C1544.211914,986.512817 1546.098267,985.527161 1547.966553,984.508667 
	C1562.200317,976.749268 1577.394043,973.141663 1593.603149,974.047119 
	C1615.380127,975.263489 1626.795410,989.398987 1623.291992,1011.391968 
	C1617.077393,1011.391968 1610.762695,1011.234924 1604.458496,1011.424072 
	C1590.481567,1011.843323 1576.464600,1011.912476 1562.548828,1013.110779 
	C1549.545166,1014.230530 1538.157715,1019.493347 1529.683838,1029.985718 
	C1516.267212,1046.598145 1517.198853,1076.972656 1539.386108,1093.088013 
M1312.645752,988.222229 
	C1324.696533,975.722351 1342.222900,971.687988 1358.032349,977.873779 
	C1373.781128,984.035950 1377.536255,997.124573 1377.580200,1012.223022 
	C1377.659668,1039.552246 1377.662231,1066.881714 1377.696289,1094.211060 
	C1377.698730,1096.134277 1377.696655,1098.057617 1377.696655,1099.919678 
	C1388.558960,1099.919678 1398.650757,1099.919678 1408.791504,1099.919678 
	C1408.791504,1065.129395 1409.477417,1030.636230 1408.491943,996.190857 
	C1408.024292,979.841125 1400.587769,965.680664 1386.499023,955.959229 
	C1368.013062,943.203735 1327.101196,940.343506 1306.039429,967.274170 
	C1305.289429,968.233276 1304.893433,969.469482 1304.332520,970.576538 
	C1303.950439,970.190552 1303.568481,969.804626 1303.186523,969.418640 
	C1302.542847,963.020447 1301.899292,956.622253 1301.260620,950.274414 
	C1291.064697,950.274414 1281.465332,950.274414 1271.803955,950.274414 
	C1271.803955,1000.280518 1271.803955,1050.006470 1271.803955,1099.770264 
	C1282.667480,1099.770264 1293.041138,1099.770264 1303.646484,1099.770264 
	C1303.646484,1097.020264 1303.645874,1094.693359 1303.646606,1092.366455 
	C1303.655884,1067.036621 1303.662109,1041.706787 1303.675903,1016.376892 
	C1303.681396,1006.307312 1305.689453,996.848755 1312.645752,988.222229 
M1975.998779,1973.473999 
	C1985.731689,1961.706909 1988.099365,1948.675781 1981.411499,1934.844971 
	C1974.727905,1921.023193 1963.036377,1914.812744 1947.789429,1914.982544 
	C1939.793335,1915.071655 1931.794556,1914.923584 1923.798462,1915.015869 
	C1904.515869,1915.238525 1889.129395,1930.593628 1889.001343,1949.654541 
	C1888.871094,1969.046143 1904.166138,1984.706909 1923.609741,1984.977173 
	C1931.938354,1985.092896 1940.270996,1984.921509 1948.599976,1985.020996 
	C1959.157227,1985.146973 1968.139771,1981.573242 1975.998779,1973.473999 
M1704.121460,957.625854 
	C1704.121460,1005.001282 1704.121460,1052.376709 1704.121460,1099.703613 
	C1715.148926,1099.703613 1725.374634,1099.703613 1735.296143,1099.703613 
	C1735.296143,1049.741211 1735.296143,1000.169312 1735.296143,950.513794 
	C1724.762207,950.513794 1714.696655,950.513794 1704.115479,950.513794 
	C1704.115479,952.762695 1704.115479,954.713379 1704.121460,957.625854 
M1188.964844,1083.498535 
	C1188.964844,1088.933594 1188.964844,1094.368530 1188.964844,1099.978882 
	C1199.640503,1099.978882 1209.737427,1099.978882 1220.014404,1099.978882 
	C1220.014404,1049.910034 1220.014404,1000.059326 1220.014404,950.003784 
	C1209.563843,950.003784 1199.515503,950.003784 1189.569336,950.003784 
	C1189.327759,950.563782 1189.090332,950.857422 1189.090088,951.151306 
	C1189.036377,994.933838 1188.999878,1038.716431 1188.964844,1083.498535 
M1692.736938,905.572144 
	C1701.680420,929.438782 1730.764404,931.454163 1743.939697,915.946167 
	C1753.715088,904.440063 1754.043335,887.997864 1744.762573,876.356934 
	C1735.800537,865.115845 1719.877441,861.548950 1707.373169,867.981628 
	C1693.642700,875.045105 1687.978882,889.036560 1692.736938,905.572144 
M1451.778320,1073.394287 
	C1448.183105,1081.929932 1448.797729,1090.107544 1454.890381,1097.176270 
	C1460.206543,1103.344116 1467.353516,1105.187256 1475.252441,1103.341797 
	C1484.092041,1101.276489 1490.453857,1092.998047 1490.688354,1083.643677 
	C1490.916260,1074.542236 1485.012573,1065.787109 1476.867432,1063.147583 
	C1467.067993,1059.972046 1458.099121,1063.433105 1451.778320,1073.394287 
M1203.676758,882.049744 
	C1192.943481,883.246277 1185.749390,890.153320 1184.903687,900.073669 
	C1184.015991,910.485352 1189.367065,919.289185 1198.486450,921.937439 
	C1206.654785,924.309509 1214.142822,922.868286 1219.980957,916.426331 
	C1225.756958,910.052917 1227.010010,902.450256 1223.772339,894.541809 
	C1220.328369,886.129761 1213.668213,882.047363 1203.676758,882.049744 
z"/>
<path fill="#F1FBF8" opacity="1.000000" stroke="none" 
	d="
M331.042114,1162.068237 
	C287.210571,1080.985840 281.205627,997.495911 315.228333,912.246948 
	C338.766937,853.267395 380.135529,808.552917 433.582886,774.841980 
	C468.087738,753.078674 505.858124,740.234436 546.254333,735.386719 
	C610.329651,727.697449 670.810913,739.148254 726.518311,772.053772 
	C804.254883,817.971497 852.089111,885.774414 866.352112,974.788879 
	C881.342468,1068.342163 855.016785,1150.796143 789.742249,1219.649658 
	C744.899780,1266.950928 689.629028,1296.175049 624.891418,1305.494995 
	C554.243225,1315.665894 488.436432,1301.186279 428.077698,1262.899536 
	C387.669373,1237.267578 355.526428,1203.580444 331.042114,1162.068237 
M748.661377,1162.147705 
	C789.275208,1113.364624 806.144958,1057.351318 798.937683,994.355347 
	C794.493591,955.510620 781.032532,919.697632 756.937378,888.872253 
	C711.899231,831.254089 652.899353,800.952698 578.989014,801.664185 
	C577.392578,801.679565 575.795898,801.666138 574.081909,801.666138 
	C574.081909,797.256042 574.081909,793.476501 574.081909,789.719727 
	C663.620850,782.157959 782.094238,844.436707 808.538818,974.332947 
	C821.541565,1038.202515 809.852905,1098.366211 772.412354,1151.969482 
	C726.922302,1217.097168 664.118347,1251.815918 583.737671,1253.193115 
	C583.737671,1266.874390 583.737671,1280.292847 583.737671,1293.706665 
	C659.181641,1296.654053 761.525085,1257.043579 820.631531,1155.209229 
	C876.002380,1059.810791 865.815369,935.013794 795.757446,849.550049 
	C722.800537,760.549683 619.769287,737.524048 539.433044,751.123474 
	C539.433044,762.831299 539.547729,774.643066 539.361511,786.450012 
	C539.307312,789.885864 540.263611,791.643311 543.605713,793.124878 
	C552.109680,796.894714 556.062500,806.336365 553.749329,815.809021 
	C551.615479,824.547546 543.921204,830.096436 534.326172,829.816467 
	C525.228882,829.551025 517.579834,823.260681 515.857910,814.420044 
	C513.923218,804.487305 518.260620,794.827332 529.912537,790.715942 
	C529.912537,777.939758 529.912537,765.199585 529.912537,751.949463 
	C519.672668,754.626160 509.898590,757.181030 500.008575,759.766296 
	C500.008575,762.185913 500.007660,764.008667 500.008728,765.831421 
	C500.023865,791.497131 500.111084,817.163330 499.933502,842.827698 
	C499.917358,845.161621 498.780457,848.033569 497.179138,849.721008 
	C487.774017,859.631775 477.932587,869.129150 468.555603,879.065308 
	C465.299530,882.515564 461.964233,883.798340 457.241882,883.778137 
	C421.412445,883.624756 385.581726,883.730530 349.751678,883.835388 
	C348.079437,883.840271 345.505737,884.062317 344.883423,885.100891 
	C340.484314,892.442444 336.485962,900.024109 331.985443,908.210144 
	C342.556946,908.210144 352.030273,908.043823 361.493530,908.279907 
	C366.265869,908.398987 369.494843,907.783447 372.022461,902.644348 
	C376.036652,894.482910 384.733398,891.618958 393.355194,894.073303 
	C401.460297,896.380554 407.441681,904.449768 407.556305,913.231628 
	C407.667450,921.741821 402.307404,928.898376 393.908691,931.453491 
	C384.672485,934.263367 375.450500,930.181519 370.685333,921.439880 
	C369.882507,919.967041 368.101074,918.040283 366.739044,918.013977 
	C354.578186,917.778809 342.409393,917.877625 330.245056,918.038391 
	C329.212677,918.052063 327.600342,919.002380 327.263763,919.896545 
	C323.937988,928.731323 320.824951,937.646240 317.656708,946.524292 
	C318.606873,946.879822 318.912415,947.094116 319.218079,947.094299 
	C344.049683,947.109680 368.881348,947.124512 393.712799,947.060730 
	C394.935547,947.057617 396.584900,946.741821 397.312347,945.926392 
	C405.000488,937.309387 414.856445,930.614807 420.296539,919.992249 
	C422.019470,916.627991 425.295227,914.882263 428.618317,916.178711 
	C430.937195,917.083374 433.899445,920.000549 433.957428,922.091431 
	C434.026367,924.578430 431.720673,927.585510 429.670074,929.566101 
	C426.895233,932.246216 423.067810,933.828674 420.256561,936.480652 
	C414.685638,941.735779 409.371796,947.282776 404.213837,952.947815 
	C401.759735,955.643005 399.157654,956.725098 395.512024,956.708252 
	C370.513702,956.592407 345.514496,956.669556 320.515594,956.684265 
	C318.740448,956.685303 316.965302,956.684387 315.084534,956.684387 
	C313.231018,967.101318 311.494293,976.861694 309.665344,987.140503 
	C316.180389,987.140503 321.989075,987.002930 327.786865,987.195251 
	C330.955597,987.300293 332.676361,986.412964 334.145050,983.277405 
	C338.439331,974.109680 349.008759,970.298767 358.264191,974.052368 
	C367.791443,977.916077 373.014832,988.306335 370.129364,997.653931 
	C367.027527,1007.702698 357.119324,1013.646362 347.162262,1011.450684 
	C339.235382,1009.702759 334.611633,1004.387878 331.910767,997.265686 
	C324.108368,997.265686 316.519135,997.265686 308.440552,997.265686 
	C308.440552,1006.679871 308.440552,1015.748047 308.440552,1025.207031 
	C310.386536,1025.207031 312.195862,1025.204346 314.005157,1025.207397 
	C336.337463,1025.244507 358.669861,1025.326050 381.001953,1025.271484 
	C384.213684,1025.263672 386.549835,1026.069214 388.782379,1028.607666 
	C402.097168,1043.747314 415.460815,1058.849854 429.102539,1073.694092 
	C436.729797,1081.993774 445.023926,1089.677734 452.781158,1097.863159 
	C454.321289,1099.488281 455.720856,1102.257690 455.453552,1104.269287 
	C455.233795,1105.922729 452.483826,1108.361694 450.785583,1108.419800 
	C448.531281,1108.497192 445.668030,1107.125854 444.027344,1105.441162 
	C440.454620,1101.772705 437.658966,1097.361816 434.248199,1093.518555 
	C417.436798,1074.575684 400.575989,1055.675781 383.560455,1036.916870 
	C382.248749,1035.470825 379.610840,1034.551880 377.581116,1034.537476 
	C356.583282,1034.386963 335.583771,1034.473022 314.584717,1034.492798 
	C312.641479,1034.494629 310.698242,1034.493042 308.159821,1034.493042 
	C309.171844,1043.539307 310.246857,1051.763306 310.939575,1060.019531 
	C311.218658,1063.345215 312.654572,1064.078979 315.688049,1064.045532 
	C327.352783,1063.916992 339.022949,1064.158325 350.684387,1063.925903 
	C354.194489,1063.855957 357.715698,1062.832642 361.172485,1061.999878 
	C365.103271,1061.052856 368.942017,1061.383179 370.780579,1065.080200 
	C371.811066,1067.152466 371.677368,1070.772705 370.495667,1072.760620 
	C368.457153,1076.190063 364.754211,1076.759644 360.772247,1075.447754 
	C357.726135,1074.444214 354.522614,1073.414795 351.366669,1073.339844 
	C340.373138,1073.078613 329.369843,1073.215698 318.370331,1073.235718 
	C316.953522,1073.238281 315.537140,1073.443848 313.648865,1073.592651 
	C314.484436,1077.601562 315.095459,1081.189453 315.995026,1084.703735 
	C317.563171,1090.829712 319.142548,1096.965698 321.130981,1102.960083 
	C321.497253,1104.064331 323.802399,1105.122192 325.246674,1105.169678 
	C331.905334,1105.389526 338.577057,1105.173462 345.241943,1105.267334 
	C347.642792,1105.301147 349.042023,1104.731567 350.188080,1102.281250 
	C353.518005,1095.161865 359.444611,1091.490356 367.279419,1091.304077 
	C375.090576,1091.118042 381.267578,1094.386353 384.950287,1101.349854 
	C386.435730,1104.158447 388.256195,1105.457520 391.287689,1106.042358 
	C403.406036,1108.380249 415.537354,1128.775146 402.290039,1141.856812 
	C399.804840,1144.310913 397.052734,1146.503540 394.664368,1149.042969 
	C393.528503,1150.250854 392.241730,1151.989502 392.239655,1153.489258 
	C392.211945,1173.486816 392.370636,1193.484985 392.591980,1213.481812 
	C392.609070,1215.025024 392.961670,1217.093750 393.977448,1218.011841 
	C401.314484,1224.642090 408.862610,1231.038818 416.421783,1237.576904 
	C416.990265,1236.701538 417.297668,1236.447998 417.302032,1236.189453 
	C417.416626,1229.360474 417.345917,1222.523926 417.652252,1215.704224 
	C417.810211,1212.187500 417.126801,1210.194336 413.408539,1208.591919 
	C404.827362,1204.893433 400.923828,1194.611816 403.807861,1185.343750 
	C406.749298,1175.891235 415.356293,1170.533325 425.098541,1172.090332 
	C434.294525,1173.560059 441.120209,1181.536865 441.084045,1191.052002 
	C441.047333,1200.715332 435.936737,1206.890259 426.867157,1210.408081 
	C426.867157,1218.914062 427.455048,1227.456299 426.687805,1235.875000 
	C426.031403,1243.077759 428.510864,1247.326416 434.796478,1250.432251 
	C440.804108,1253.400635 446.447418,1257.106445 452.570648,1260.674438 
	C452.813110,1259.201782 452.958984,1258.723755 452.961029,1258.245117 
	C453.083710,1229.246460 453.165222,1200.247437 453.357391,1171.249390 
	C453.374420,1168.676514 452.536072,1167.601440 450.106384,1166.599487 
	C441.530945,1163.063965 436.900269,1154.405029 438.443207,1145.623047 
	C440.032745,1136.575684 447.326324,1130.230591 456.510162,1129.905273 
	C465.956818,1129.570679 473.689301,1135.095947 476.009308,1143.838867 
	C478.415039,1152.904907 474.352722,1161.837036 466.167969,1166.260620 
	C464.617035,1167.098755 462.691101,1169.150879 462.682251,1170.653076 
	C462.499969,1201.483154 462.556519,1232.314697 462.647797,1263.145752 
	C462.651245,1264.309448 463.166412,1266.160522 463.972504,1266.527100 
	C472.517975,1270.412598 481.170868,1274.061646 490.376465,1278.026733 
	C490.543671,1275.500732 490.733124,1274.048584 490.722198,1272.598145 
	C490.432373,1234.121704 490.118195,1195.645386 489.820801,1157.169067 
	C489.792053,1153.447510 491.446198,1151.056030 495.382172,1150.951660 
	C499.015320,1150.855103 501.220306,1153.689209 501.013458,1157.626221 
	C500.621368,1165.091064 500.189728,1172.558838 500.049377,1180.030640 
	C499.877289,1189.193970 499.977875,1198.362549 499.976593,1207.528931 
	C499.973358,1230.694702 499.936615,1253.860840 500.071533,1277.025879 
	C500.081116,1278.665527 501.049500,1281.438965 502.133087,1281.753662 
	C511.192535,1284.385376 520.383545,1286.563965 530.307312,1289.074707 
	C530.307312,1286.097900 530.305969,1284.137207 530.307373,1282.176514 
	C530.322937,1261.010742 530.242065,1239.844116 530.447998,1218.680176 
	C530.483398,1215.044312 529.619690,1213.287231 526.090820,1211.712158 
	C517.969421,1208.087280 513.981262,1198.218506 516.264221,1189.273926 
	C518.489380,1180.556030 525.935974,1174.991455 535.106384,1175.193726 
	C544.415039,1175.399170 552.339417,1181.918579 554.025146,1190.758423 
	C555.786133,1199.992188 551.656067,1208.640381 543.178223,1212.067017 
	C539.973145,1213.362427 539.580933,1215.110840 539.594666,1218.023315 
	C539.701355,1240.688599 539.670776,1263.354492 539.708496,1286.020264 
	C539.710876,1287.449097 539.931152,1288.877563 540.075012,1290.605957 
	C550.638611,1291.695190 560.840027,1292.747192 571.676208,1293.864502 
	C571.676208,1275.471191 571.676208,1257.744141 571.676208,1239.943726 
	C643.266052,1242.381958 701.820557,1216.386597 748.661377,1162.147705 
M467.577698,866.081604 
	C474.004913,859.554871 480.298798,852.888367 486.922424,846.567444 
	C489.724609,843.893372 490.654419,841.037415 490.630371,837.311523 
	C490.488617,815.327576 490.505554,793.342651 490.470337,771.358032 
	C490.466187,768.761536 490.469788,766.165039 490.469788,762.661438 
	C481.996796,766.350769 474.328094,769.855469 466.516754,773.006470 
	C463.543396,774.205933 462.675537,775.918640 462.697510,778.985107 
	C462.810883,794.806824 462.710175,810.630005 462.710327,826.452637 
	C462.710419,836.406494 456.661682,843.868530 446.903351,846.224060 
	C445.786407,846.493652 444.557953,847.842590 444.083191,848.983215 
	C440.786133,856.904175 435.045990,861.137634 426.391357,861.150085 
	C417.761017,861.162476 411.415405,857.607239 407.711914,849.505920 
	C407.076874,848.116699 405.004974,846.540833 403.558502,846.502625 
	C393.905487,846.247620 384.238861,846.263367 374.585083,846.515564 
	C372.928986,846.558838 370.817474,847.763550 369.762054,849.099731 
	C364.192352,856.151123 358.877289,863.404541 353.520203,870.622192 
	C352.805603,871.585022 352.353699,872.742737 351.466644,874.393677 
	C353.900635,874.393677 355.550934,874.397583 357.201202,874.393127 
	C387.838379,874.310486 418.478760,873.960266 449.110413,874.331299 
	C456.742004,874.423706 462.705261,872.945312 467.577698,866.081604 
M350.396790,1118.797974 
	C349.266113,1117.378540 348.198944,1114.796509 346.994324,1114.730835 
	C339.887665,1114.342529 332.748993,1114.539551 325.512756,1114.539551 
	C331.103210,1139.140747 365.192383,1193.641113 383.285217,1206.680786 
	C383.285217,1204.507080 383.289612,1202.754761 383.284485,1201.002563 
	C383.237732,1185.007690 383.319092,1169.010864 383.056091,1153.019409 
	C382.984497,1148.668213 384.059723,1145.557495 387.657318,1142.854004 
	C390.804535,1140.489014 393.667572,1137.512695 395.975739,1134.315186 
	C400.184357,1128.484985 398.448853,1120.017700 392.686035,1116.178955 
	C389.787231,1114.247925 387.623962,1113.706421 385.879700,1117.972290 
	C382.834351,1125.420166 376.811218,1129.422363 368.795074,1129.729980 
	C360.827179,1130.035889 354.618103,1126.690674 350.396790,1118.797974 
M447.489685,782.994690 
	C422.935883,797.726135 400.632507,815.216736 380.209381,837.141479 
	C389.213043,837.141479 396.828400,837.258728 404.432159,837.015137 
	C405.575317,836.978516 407.166168,835.476562 407.697052,834.275513 
	C411.113403,826.546448 417.205414,822.862305 425.343964,822.612488 
	C433.403015,822.365112 439.345520,826.093384 443.049774,833.314758 
	C443.695984,834.574524 444.483978,835.761536 445.243317,837.044373 
	C450.607513,834.634888 453.703705,831.644226 453.329224,825.508057 
	C452.823456,817.220032 453.146606,808.880981 453.129883,800.563782 
	C453.116669,793.980835 453.127258,787.397888 453.127258,780.096252 
	C450.992798,781.180237 449.557129,781.909302 447.489685,782.994690 
M358.295074,1112.916016 
	C358.779480,1113.970459 359.130066,1115.115234 359.771210,1116.063721 
	C362.698608,1120.395142 367.997650,1121.766724 372.524658,1119.452393 
	C376.734558,1117.300415 379.009033,1111.939575 377.569550,1107.562134 
	C376.010010,1102.819458 371.130859,1100.028442 366.067474,1100.982300 
	C361.213562,1101.896729 358.489777,1105.744873 358.295074,1112.916016 
M424.080322,832.299316 
	C416.478241,835.385620 413.780273,841.881531 417.769653,847.493408 
	C420.513306,851.352966 425.472870,852.816895 429.702209,851.015625 
	C433.885437,849.234009 436.592560,844.383057 435.933624,840.117554 
	C435.353790,836.363586 430.670197,831.255371 424.080322,832.299316 
M540.061829,1186.057617 
	C532.389282,1181.703369 524.232056,1188.832275 525.510071,1195.985840 
	C526.310425,1200.465576 529.183228,1202.942871 533.451538,1203.820801 
	C537.827942,1204.720825 542.208679,1202.414551 544.099670,1198.273438 
	C546.306763,1193.440063 544.708374,1189.594971 540.061829,1186.057617 
M450.420563,1155.054565 
	C453.908295,1158.415527 457.905884,1159.313599 462.294830,1157.156860 
	C465.924744,1155.373047 467.708221,1152.243530 467.439636,1148.214478 
	C467.141052,1143.735107 464.544678,1140.825439 460.362122,1139.502808 
	C456.217224,1138.192017 452.814789,1139.793701 450.164368,1142.962891 
	C447.069122,1146.664062 447.285431,1150.561157 450.420563,1155.054565 
M426.031189,1182.268555 
	C422.122955,1180.485840 418.130859,1180.742554 415.615265,1184.107300 
	C413.818970,1186.510132 412.519928,1190.103516 412.759308,1193.021362 
	C413.137939,1197.636353 416.734070,1200.179077 421.414215,1200.440308 
	C426.084900,1200.701050 429.498627,1198.469116 431.095093,1194.109253 
	C432.905121,1189.166138 430.935638,1185.399780 426.031189,1182.268555 
M361.033875,991.582642 
	C360.582611,986.694214 357.966217,983.671448 353.161865,982.683594 
	C349.003815,981.828735 345.609802,983.277405 343.233704,986.709839 
	C340.809052,990.212219 341.052216,993.957886 343.281494,997.429504 
	C345.434357,1000.781921 348.692505,1002.328674 352.660339,1001.499207 
	C357.529449,1000.481262 360.518341,997.512329 361.033875,991.582642 
M544.253113,813.464233 
	C545.664612,807.099609 542.880554,802.070190 537.284424,800.875122 
	C531.877258,799.720398 526.846680,802.850769 525.538147,808.184570 
	C524.522217,812.325562 526.844238,816.938171 530.900818,818.837402 
	C535.661804,821.066345 540.235840,819.438843 544.253113,813.464233 
M386.077820,921.931885 
	C392.367828,922.354858 395.711060,920.657532 397.345642,916.053528 
	C398.932373,911.584351 397.686371,907.811340 394.009918,904.973877 
	C389.508606,901.499634 383.153320,902.721558 380.021393,907.486450 
	C376.698822,912.541382 378.787628,918.176331 386.077820,921.931885 
z"/>
<path fill="#F9FDFB" opacity="1.000000" stroke="none" 
	d="
M1013.805481,1050.999634 
	C1013.807617,1000.873657 1013.807617,951.247864 1013.807617,901.270142 
	C1060.289795,901.270142 1106.501953,901.270142 1152.959106,901.270142 
	C1152.959106,910.420898 1152.959106,919.534302 1152.959106,929.395386 
	C1117.316772,929.395386 1081.798950,929.395386 1046.032227,929.395386 
	C1046.032227,950.232849 1046.032227,970.325684 1046.032227,990.828308 
	C1077.382935,990.828308 1108.769165,990.828308 1140.552734,990.828308 
	C1140.552734,1000.275513 1140.552734,1009.326782 1140.552734,1018.907349 
	C1109.093140,1018.907349 1077.556030,1018.907349 1045.743408,1018.907349 
	C1045.743408,1046.192505 1045.743408,1072.956177 1045.743408,1099.977051 
	C1035.032104,1099.977051 1024.601562,1099.977051 1013.803345,1099.977051 
	C1013.803345,1083.702881 1013.803345,1067.601318 1013.805481,1050.999634 
z"/>
<path fill="#F8FCFB" opacity="1.000000" stroke="none" 
	d="
M1539.096436,1092.881348 
	C1517.198853,1076.972656 1516.267212,1046.598145 1529.683838,1029.985718 
	C1538.157715,1019.493347 1549.545166,1014.230530 1562.548828,1013.110779 
	C1576.464600,1011.912476 1590.481567,1011.843323 1604.458496,1011.424072 
	C1610.762695,1011.234924 1617.077393,1011.391968 1623.291992,1011.391968 
	C1626.795410,989.398987 1615.380127,975.263489 1593.603149,974.047119 
	C1577.394043,973.141663 1562.200317,976.749268 1547.966553,984.508667 
	C1546.098267,985.527161 1544.211914,986.512817 1542.013184,987.684631 
	C1538.320312,980.170593 1534.752563,972.911194 1530.815063,964.899292 
	C1535.353760,962.225708 1539.677734,959.100159 1544.445923,956.968689 
	C1566.510742,947.104980 1589.483765,943.857849 1613.186279,949.415955 
	C1639.307007,955.541138 1653.800659,972.707825 1654.547974,1000.452026 
	C1655.426758,1033.080688 1654.802856,1065.749756 1654.817871,1098.401367 
	C1654.818115,1098.709961 1654.643921,1099.018677 1654.440796,1099.694336 
	C1645.002563,1099.694336 1635.457275,1099.694336 1625.481445,1099.694336 
	C1625.136597,1093.776978 1624.796265,1087.937988 1624.375000,1080.712158 
	C1613.219727,1096.003052 1598.807373,1102.493286 1581.711792,1103.437866 
	C1566.598999,1104.272949 1552.125854,1102.131470 1539.096436,1092.881348 
M1560.560181,1036.950562 
	C1547.347534,1048.556519 1548.970825,1068.022217 1564.364868,1075.065552 
	C1579.954102,1082.198120 1595.613159,1080.953613 1609.962524,1071.337280 
	C1624.684570,1061.471313 1625.488525,1046.572388 1623.372803,1030.705444 
	C1622.764160,1030.582520 1622.133423,1030.336548 1621.506592,1030.345947 
	C1607.193970,1030.561646 1592.848755,1030.314575 1578.585693,1031.279419 
	C1572.680664,1031.678833 1566.952026,1034.684448 1560.560181,1036.950562 
z"/>
<path fill="#F9FDFB" opacity="1.000000" stroke="none" 
	d="
M1312.407715,988.495422 
	C1305.689453,996.848755 1303.681396,1006.307312 1303.675903,1016.376892 
	C1303.662109,1041.706787 1303.655884,1067.036621 1303.646606,1092.366455 
	C1303.645874,1094.693359 1303.646484,1097.020264 1303.646484,1099.770264 
	C1293.041138,1099.770264 1282.667480,1099.770264 1271.803955,1099.770264 
	C1271.803955,1050.006470 1271.803955,1000.280518 1271.803955,950.274414 
	C1281.465332,950.274414 1291.064697,950.274414 1301.260620,950.274414 
	C1301.899292,956.622253 1302.542847,963.020447 1303.186523,969.418640 
	C1303.568481,969.804626 1303.950439,970.190552 1304.332520,970.576538 
	C1304.893433,969.469482 1305.289429,968.233276 1306.039429,967.274170 
	C1327.101196,940.343506 1368.013062,943.203735 1386.499023,955.959229 
	C1400.587769,965.680664 1408.024292,979.841125 1408.491943,996.190857 
	C1409.477417,1030.636230 1408.791504,1065.129395 1408.791504,1099.919678 
	C1398.650757,1099.919678 1388.558960,1099.919678 1377.696655,1099.919678 
	C1377.696655,1098.057617 1377.698730,1096.134277 1377.696289,1094.211060 
	C1377.662231,1066.881714 1377.659668,1039.552246 1377.580200,1012.223022 
	C1377.536255,997.124573 1373.781128,984.035950 1358.032349,977.873779 
	C1342.222900,971.687988 1324.696533,975.722351 1312.407715,988.495422 
z"/>
<path fill="#8EBDB0" opacity="1.000000" stroke="none" 
	d="
M1975.752075,1973.730347 
	C1968.139771,1981.573242 1959.157227,1985.146973 1948.599976,1985.020996 
	C1940.270996,1984.921509 1931.938354,1985.092896 1923.609741,1984.977173 
	C1904.166138,1984.706909 1888.871094,1969.046143 1889.001343,1949.654541 
	C1889.129395,1930.593628 1904.515869,1915.238525 1923.798462,1915.015869 
	C1931.794556,1914.923584 1939.793335,1915.071655 1947.789429,1914.982544 
	C1963.036377,1914.812744 1974.727905,1921.023193 1981.411499,1934.844971 
	C1988.099365,1948.675781 1985.731689,1961.706909 1975.752075,1973.730347 
M1940.813599,1948.295044 
	C1937.083130,1939.140747 1925.808716,1937.597656 1919.129639,1945.462402 
	C1920.621094,1947.979370 1922.273804,1948.489014 1925.168701,1947.045044 
	C1930.097168,1944.587036 1933.124023,1946.029053 1933.704468,1950.939575 
	C1930.723511,1950.939575 1927.712280,1950.513062 1924.874390,1951.032715 
	C1919.765503,1951.967896 1917.374634,1955.459839 1917.886963,1960.260864 
	C1918.371338,1964.802612 1921.945312,1967.957031 1926.883789,1967.670044 
	C1931.375366,1967.409058 1935.838135,1966.652588 1940.943848,1966.038818 
	C1940.943848,1960.677979 1940.943848,1954.916260 1940.813599,1948.295044 
M1946.976685,1958.430176 
	C1946.976685,1961.050049 1946.976685,1963.669922 1946.976685,1966.661865 
	C1950.075684,1966.498535 1953.587158,1968.861694 1953.722656,1963.792236 
	C1953.895996,1957.299194 1953.919800,1950.790283 1953.603760,1944.307861 
	C1953.551392,1943.234619 1951.435913,1941.473511 1950.272339,1941.472168 
	C1949.182617,1941.470947 1947.252441,1943.308350 1947.149292,1944.466431 
	C1946.766113,1948.764771 1946.984253,1953.116821 1946.976685,1958.430176 
M1946.228516,1935.133423 
	C1947.285889,1937.782837 1949.121704,1939.552734 1951.906128,1937.998779 
	C1953.153076,1937.302856 1954.390869,1935.012939 1954.165771,1933.697632 
	C1953.937256,1932.362305 1951.402954,1930.135376 1950.751831,1930.405396 
	C1948.969116,1931.144775 1947.645752,1932.991699 1946.228516,1935.133423 
z"/>
<path fill="#F7FCFA" opacity="1.000000" stroke="none" 
	d="
M1704.118408,957.144958 
	C1704.115479,954.713379 1704.115479,952.762695 1704.115479,950.513794 
	C1714.696655,950.513794 1724.762207,950.513794 1735.296143,950.513794 
	C1735.296143,1000.169312 1735.296143,1049.741211 1735.296143,1099.703613 
	C1725.374634,1099.703613 1715.148926,1099.703613 1704.121460,1099.703613 
	C1704.121460,1052.376709 1704.121460,1005.001282 1704.118408,957.144958 
z"/>
<path fill="#F9FDFB" opacity="1.000000" stroke="none" 
	d="
M1188.963623,1082.998779 
	C1188.999878,1038.716431 1189.036377,994.933838 1189.090088,951.151306 
	C1189.090332,950.857422 1189.327759,950.563782 1189.569336,950.003784 
	C1199.515503,950.003784 1209.563843,950.003784 1220.014404,950.003784 
	C1220.014404,1000.059326 1220.014404,1049.910034 1220.014404,1099.978882 
	C1209.737427,1099.978882 1199.640503,1099.978882 1188.964844,1099.978882 
	C1188.964844,1094.368530 1188.964844,1088.933594 1188.963623,1082.998779 
z"/>
<path fill="#82D458" opacity="1.000000" stroke="none" 
	d="
M1692.598633,905.196899 
	C1687.978882,889.036560 1693.642700,875.045105 1707.373169,867.981628 
	C1719.877441,861.548950 1735.800537,865.115845 1744.762573,876.356934 
	C1754.043335,887.997864 1753.715088,904.440063 1743.939697,915.946167 
	C1730.764404,931.454163 1701.680420,929.438782 1692.598633,905.196899 
z"/>
<path fill="#F7FCFA" opacity="1.000000" stroke="none" 
	d="
M1451.932861,1073.052368 
	C1458.099121,1063.433105 1467.067993,1059.972046 1476.867432,1063.147583 
	C1485.012573,1065.787109 1490.916260,1074.542236 1490.688354,1083.643677 
	C1490.453857,1092.998047 1484.092041,1101.276489 1475.252441,1103.341797 
	C1467.353516,1105.187256 1460.206543,1103.344116 1454.890381,1097.176270 
	C1448.797729,1090.107544 1448.183105,1081.929932 1451.932861,1073.052368 
z"/>
<path fill="#F7FCFA" opacity="1.000000" stroke="none" 
	d="
M1204.117188,882.040039 
	C1213.668213,882.047363 1220.328369,886.129761 1223.772339,894.541809 
	C1227.010010,902.450256 1225.756958,910.052917 1219.980957,916.426331 
	C1214.142822,922.868286 1206.654785,924.309509 1198.486450,921.937439 
	C1189.367065,919.289185 1184.015991,910.485352 1184.903687,900.073669 
	C1185.749390,890.153320 1192.943481,883.246277 1204.117188,882.040039 
z"/>
<path fill="#237C62" opacity="1.000000" stroke="none" 
	d="
M748.429016,1162.416992 
	C701.820557,1216.386597 643.266052,1242.381958 571.676208,1239.943726 
	C571.676208,1257.744141 571.676208,1275.471191 571.676208,1293.864502 
	C560.840027,1292.747192 550.638611,1291.695190 540.075012,1290.605957 
	C539.931152,1288.877563 539.710876,1287.449097 539.708496,1286.020264 
	C539.670776,1263.354492 539.701355,1240.688599 539.594666,1218.023315 
	C539.580933,1215.110840 539.973145,1213.362427 543.178223,1212.067017 
	C551.656067,1208.640381 555.786133,1199.992188 554.025146,1190.758423 
	C552.339417,1181.918579 544.415039,1175.399170 535.106384,1175.193726 
	C525.935974,1174.991455 518.489380,1180.556030 516.264221,1189.273926 
	C513.981262,1198.218506 517.969421,1208.087280 526.090820,1211.712158 
	C529.619690,1213.287231 530.483398,1215.044312 530.447998,1218.680176 
	C530.242065,1239.844116 530.322937,1261.010742 530.307373,1282.176514 
	C530.305969,1284.137207 530.307312,1286.097900 530.307312,1289.074707 
	C520.383545,1286.563965 511.192535,1284.385376 502.133087,1281.753662 
	C501.049500,1281.438965 500.081116,1278.665527 500.071533,1277.025879 
	C499.936615,1253.860840 499.973358,1230.694702 499.976593,1207.528931 
	C499.977875,1198.362549 499.877289,1189.193970 500.049377,1180.030640 
	C500.189728,1172.558838 500.621368,1165.091064 501.013458,1157.626221 
	C501.220306,1153.689209 499.015320,1150.855103 495.382172,1150.951660 
	C491.446198,1151.056030 489.792053,1153.447510 489.820801,1157.169067 
	C490.118195,1195.645386 490.432373,1234.121704 490.722198,1272.598145 
	C490.733124,1274.048584 490.543671,1275.500732 490.376465,1278.026733 
	C481.170868,1274.061646 472.517975,1270.412598 463.972504,1266.527100 
	C463.166412,1266.160522 462.651245,1264.309448 462.647797,1263.145752 
	C462.556519,1232.314697 462.499969,1201.483154 462.682251,1170.653076 
	C462.691101,1169.150879 464.617035,1167.098755 466.167969,1166.260620 
	C474.352722,1161.837036 478.415039,1152.904907 476.009308,1143.838867 
	C473.689301,1135.095947 465.956818,1129.570679 456.510162,1129.905273 
	C447.326324,1130.230591 440.032745,1136.575684 438.443207,1145.623047 
	C436.900269,1154.405029 441.530945,1163.063965 450.106384,1166.599487 
	C452.536072,1167.601440 453.374420,1168.676514 453.357391,1171.249390 
	C453.165222,1200.247437 453.083710,1229.246460 452.961029,1258.245117 
	C452.958984,1258.723755 452.813110,1259.201782 452.570648,1260.674438 
	C446.447418,1257.106445 440.804108,1253.400635 434.796478,1250.432251 
	C428.510864,1247.326416 426.031403,1243.077759 426.687805,1235.875000 
	C427.455048,1227.456299 426.867157,1218.914062 426.867157,1210.408081 
	C435.936737,1206.890259 441.047333,1200.715332 441.084045,1191.052002 
	C441.120209,1181.536865 434.294525,1173.560059 425.098541,1172.090332 
	C415.356293,1170.533325 406.749298,1175.891235 403.807861,1185.343750 
	C400.923828,1194.611816 404.827362,1204.893433 413.408539,1208.591919 
	C417.126801,1210.194336 417.810211,1212.187500 417.652252,1215.704224 
	C417.345917,1222.523926 417.416626,1229.360474 417.302032,1236.189453 
	C417.297668,1236.447998 416.990265,1236.701538 416.421783,1237.576904 
	C408.862610,1231.038818 401.314484,1224.642090 393.977448,1218.011841 
	C392.961670,1217.093750 392.609070,1215.025024 392.591980,1213.481812 
	C392.370636,1193.484985 392.211945,1173.486816 392.239655,1153.489258 
	C392.241730,1151.989502 393.528503,1150.250854 394.664368,1149.042969 
	C397.052734,1146.503540 399.804840,1144.310913 402.290039,1141.856812 
	C415.537354,1128.775146 403.406036,1108.380249 391.287689,1106.042358 
	C388.256195,1105.457520 386.435730,1104.158447 384.950287,1101.349854 
	C381.267578,1094.386353 375.090576,1091.118042 367.279419,1091.304077 
	C359.444611,1091.490356 353.518005,1095.161865 350.188080,1102.281250 
	C349.042023,1104.731567 347.642792,1105.301147 345.241943,1105.267334 
	C338.577057,1105.173462 331.905334,1105.389526 325.246674,1105.169678 
	C323.802399,1105.122192 321.497253,1104.064331 321.130981,1102.960083 
	C319.142548,1096.965698 317.563171,1090.829712 315.995026,1084.703735 
	C315.095459,1081.189453 314.484436,1077.601562 313.648865,1073.592651 
	C315.537140,1073.443848 316.953522,1073.238281 318.370331,1073.235718 
	C329.369843,1073.215698 340.373138,1073.078613 351.366669,1073.339844 
	C354.522614,1073.414795 357.726135,1074.444214 360.772247,1075.447754 
	C364.754211,1076.759644 368.457153,1076.190063 370.495667,1072.760620 
	C371.677368,1070.772705 371.811066,1067.152466 370.780579,1065.080200 
	C368.942017,1061.383179 365.103271,1061.052856 361.172485,1061.999878 
	C357.715698,1062.832642 354.194489,1063.855957 350.684387,1063.925903 
	C339.022949,1064.158325 327.352783,1063.916992 315.688049,1064.045532 
	C312.654572,1064.078979 311.218658,1063.345215 310.939575,1060.019531 
	C310.246857,1051.763306 309.171844,1043.539307 308.159821,1034.493042 
	C310.698242,1034.493042 312.641479,1034.494629 314.584717,1034.492798 
	C335.583771,1034.473022 356.583282,1034.386963 377.581116,1034.537476 
	C379.610840,1034.551880 382.248749,1035.470825 383.560455,1036.916870 
	C400.575989,1055.675781 417.436798,1074.575684 434.248199,1093.518555 
	C437.658966,1097.361816 440.454620,1101.772705 444.027344,1105.441162 
	C445.668030,1107.125854 448.531281,1108.497192 450.785583,1108.419800 
	C452.483826,1108.361694 455.233795,1105.922729 455.453552,1104.269287 
	C455.720856,1102.257690 454.321289,1099.488281 452.781158,1097.863159 
	C445.023926,1089.677734 436.729797,1081.993774 429.102539,1073.694092 
	C415.460815,1058.849854 402.097168,1043.747314 388.782379,1028.607666 
	C386.549835,1026.069214 384.213684,1025.263672 381.001953,1025.271484 
	C358.669861,1025.326050 336.337463,1025.244507 314.005157,1025.207397 
	C312.195862,1025.204346 310.386536,1025.207031 308.440552,1025.207031 
	C308.440552,1015.748047 308.440552,1006.679871 308.440552,997.265686 
	C316.519135,997.265686 324.108368,997.265686 331.910767,997.265686 
	C334.611633,1004.387878 339.235382,1009.702759 347.162262,1011.450684 
	C357.119324,1013.646362 367.027527,1007.702698 370.129364,997.653931 
	C373.014832,988.306335 367.791443,977.916077 358.264191,974.052368 
	C349.008759,970.298767 338.439331,974.109680 334.145050,983.277405 
	C332.676361,986.412964 330.955597,987.300293 327.786865,987.195251 
	C321.989075,987.002930 316.180389,987.140503 309.665344,987.140503 
	C311.494293,976.861694 313.231018,967.101318 315.084534,956.684387 
	C316.965302,956.684387 318.740448,956.685303 320.515594,956.684265 
	C345.514496,956.669556 370.513702,956.592407 395.512024,956.708252 
	C399.157654,956.725098 401.759735,955.643005 404.213837,952.947815 
	C409.371796,947.282776 414.685638,941.735779 420.256561,936.480652 
	C423.067810,933.828674 426.895233,932.246216 429.670074,929.566101 
	C431.720673,927.585510 434.026367,924.578430 433.957428,922.091431 
	C433.899445,920.000549 430.937195,917.083374 428.618317,916.178711 
	C425.295227,914.882263 422.019470,916.627991 420.296539,919.992249 
	C414.856445,930.614807 405.000488,937.309387 397.312347,945.926392 
	C396.584900,946.741821 394.935547,947.057617 393.712799,947.060730 
	C368.881348,947.124512 344.049683,947.109680 319.218079,947.094299 
	C318.912415,947.094116 318.606873,946.879822 317.656708,946.524292 
	C320.824951,937.646240 323.937988,928.731323 327.263763,919.896545 
	C327.600342,919.002380 329.212677,918.052063 330.245056,918.038391 
	C342.409393,917.877625 354.578186,917.778809 366.739044,918.013977 
	C368.101074,918.040283 369.882507,919.967041 370.685333,921.439880 
	C375.450500,930.181519 384.672485,934.263367 393.908691,931.453491 
	C402.307404,928.898376 407.667450,921.741821 407.556305,913.231628 
	C407.441681,904.449768 401.460297,896.380554 393.355194,894.073303 
	C384.733398,891.618958 376.036652,894.482910 372.022461,902.644348 
	C369.494843,907.783447 366.265869,908.398987 361.493530,908.279907 
	C352.030273,908.043823 342.556946,908.210144 331.985443,908.210144 
	C336.485962,900.024109 340.484314,892.442444 344.883423,885.100891 
	C345.505737,884.062317 348.079437,883.840271 349.751678,883.835388 
	C385.581726,883.730530 421.412445,883.624756 457.241882,883.778137 
	C461.964233,883.798340 465.299530,882.515564 468.555603,879.065308 
	C477.932587,869.129150 487.774017,859.631775 497.179138,849.721008 
	C498.780457,848.033569 499.917358,845.161621 499.933502,842.827698 
	C500.111084,817.163330 500.023865,791.497131 500.008728,765.831421 
	C500.007660,764.008667 500.008575,762.185913 500.008575,759.766296 
	C509.898590,757.181030 519.672668,754.626160 529.912537,751.949463 
	C529.912537,765.199585 529.912537,777.939758 529.912537,790.715942 
	C518.260620,794.827332 513.923218,804.487305 515.857910,814.420044 
	C517.579834,823.260681 525.228882,829.551025 534.326172,829.816467 
	C543.921204,830.096436 551.615479,824.547546 553.749329,815.809021 
	C556.062500,806.336365 552.109680,796.894714 543.605713,793.124878 
	C540.263611,791.643311 539.307312,789.885864 539.361511,786.450012 
	C539.547729,774.643066 539.433044,762.831299 539.433044,751.123474 
	C619.769287,737.524048 722.800537,760.549683 795.757446,849.550049 
	C865.815369,935.013794 876.002380,1059.810791 820.631531,1155.209229 
	C761.525085,1257.043579 659.181641,1296.654053 583.737671,1293.706665 
	C583.737671,1280.292847 583.737671,1266.874390 583.737671,1253.193115 
	C664.118347,1251.815918 726.922302,1217.097168 772.412354,1151.969482 
	C809.852905,1098.366211 821.541565,1038.202515 808.538818,974.332947 
	C782.094238,844.436707 663.620850,782.157959 574.081909,789.719727 
	C574.081909,793.476501 574.081909,797.256042 574.081909,801.666138 
	C575.795898,801.666138 577.392578,801.679565 578.989014,801.664185 
	C652.899353,800.952698 711.899231,831.254089 756.937378,888.872253 
	C781.032532,919.697632 794.493591,955.510620 798.937683,994.355347 
	C806.144958,1057.351318 789.275208,1113.364624 748.429016,1162.416992 
M734.517212,959.193115 
	C730.620850,947.106812 723.427124,937.728027 712.135559,931.607788 
	C710.976746,930.979675 709.819824,929.654907 709.427551,928.411865 
	C705.074463,914.616699 695.783508,905.955627 682.237244,901.375244 
	C680.467041,900.776672 678.610474,899.082336 677.738159,897.404541 
	C672.995850,888.283875 665.950256,881.780518 656.493042,877.917847 
	C628.314819,866.408997 595.574280,887.682495 595.037109,918.142822 
	C594.646545,940.289246 594.949402,962.447937 594.955933,984.601196 
	C594.967346,1023.744141 594.731262,1062.889404 595.089294,1102.029297 
	C595.362671,1131.921875 620.073364,1153.186523 649.654907,1149.060913 
	C671.296875,1146.042480 684.668213,1132.478394 692.016418,1112.658081 
	C693.623047,1108.324341 695.477295,1106.556274 700.098694,1105.876831 
	C726.216980,1102.036621 744.531006,1078.416870 742.353760,1052.094360 
	C742.217041,1050.441284 742.623230,1048.432007 743.504089,1047.052979 
	C755.621094,1028.084839 752.759033,1005.290894 736.091248,990.506042 
	C734.040894,988.687378 733.348145,987.195984 734.245728,984.576050 
	C737.025269,976.462708 736.925659,968.226562 734.517212,959.193115 
M485.317596,1116.087280 
	C493.161499,1140.424561 519.019592,1152.329956 540.856445,1148.191162 
	C563.924805,1143.818848 578.925354,1125.048462 578.946350,1099.560913 
	C578.996155,1039.062866 579.025818,978.564697 578.880310,918.066956 
	C578.836365,899.792175 570.240784,886.176208 554.362061,877.426514 
	C537.274597,868.010681 510.027069,872.185852 499.990570,888.786743 
	C499.247375,890.015991 497.463837,890.811035 495.997681,891.377808 
	C483.713043,896.126709 475.356384,904.436646 471.717285,917.314697 
	C471.307312,918.765442 469.896118,920.510925 468.534576,921.028137 
	C449.593048,928.223999 438.658539,946.485168 441.715179,966.666870 
	C442.337891,970.778503 441.748596,973.503235 438.495422,976.615295 
	C412.693604,1001.297607 419.288910,1047.353394 452.207855,1060.050903 
	C453.376312,1060.501709 454.659912,1062.236206 454.810028,1063.500488 
	C456.321533,1076.230347 461.763489,1087.268677 471.953125,1094.588989 
	C479.585541,1100.072144 484.712830,1105.854370 485.317596,1116.087280 
z"/>
<path fill="#267D64" opacity="1.000000" stroke="none" 
	d="
M467.327423,866.333008 
	C462.705261,872.945312 456.742004,874.423706 449.110413,874.331299 
	C418.478760,873.960266 387.838379,874.310486 357.201202,874.393127 
	C355.550934,874.397583 353.900635,874.393677 351.466644,874.393677 
	C352.353699,872.742737 352.805603,871.585022 353.520203,870.622192 
	C358.877289,863.404541 364.192352,856.151123 369.762054,849.099731 
	C370.817474,847.763550 372.928986,846.558838 374.585083,846.515564 
	C384.238861,846.263367 393.905487,846.247620 403.558502,846.502625 
	C405.004974,846.540833 407.076874,848.116699 407.711914,849.505920 
	C411.415405,857.607239 417.761017,861.162476 426.391357,861.150085 
	C435.045990,861.137634 440.786133,856.904175 444.083191,848.983215 
	C444.557953,847.842590 445.786407,846.493652 446.903351,846.224060 
	C456.661682,843.868530 462.710419,836.406494 462.710327,826.452637 
	C462.710175,810.630005 462.810883,794.806824 462.697510,778.985107 
	C462.675537,775.918640 463.543396,774.205933 466.516754,773.006470 
	C474.328094,769.855469 481.996796,766.350769 490.469788,762.661438 
	C490.469788,766.165039 490.466187,768.761536 490.470337,771.358032 
	C490.505554,793.342651 490.488617,815.327576 490.630371,837.311523 
	C490.654419,841.037415 489.724609,843.893372 486.922424,846.567444 
	C480.298798,852.888367 474.004913,859.554871 467.327423,866.333008 
z"/>
<path fill="#257B62" opacity="1.000000" stroke="none" 
	d="
M350.575134,1119.144409 
	C354.618103,1126.690674 360.827179,1130.035889 368.795074,1129.729980 
	C376.811218,1129.422363 382.834351,1125.420166 385.879700,1117.972290 
	C387.623962,1113.706421 389.787231,1114.247925 392.686035,1116.178955 
	C398.448853,1120.017700 400.184357,1128.484985 395.975739,1134.315186 
	C393.667572,1137.512695 390.804535,1140.489014 387.657318,1142.854004 
	C384.059723,1145.557495 382.984497,1148.668213 383.056091,1153.019409 
	C383.319092,1169.010864 383.237732,1185.007690 383.284485,1201.002563 
	C383.289612,1202.754761 383.285217,1204.507080 383.285217,1206.680786 
	C365.192383,1193.641113 331.103210,1139.140747 325.512756,1114.539551 
	C332.748993,1114.539551 339.887665,1114.342529 346.994324,1114.730835 
	C348.198944,1114.796509 349.266113,1117.378540 350.575134,1119.144409 
z"/>
<path fill="#257B62" opacity="1.000000" stroke="none" 
	d="
M447.805573,782.816528 
	C449.557129,781.909302 450.992798,781.180237 453.127258,780.096252 
	C453.127258,787.397888 453.116669,793.980835 453.129883,800.563782 
	C453.146606,808.880981 452.823456,817.220032 453.329224,825.508057 
	C453.703705,831.644226 450.607513,834.634888 445.243317,837.044373 
	C444.483978,835.761536 443.695984,834.574524 443.049774,833.314758 
	C439.345520,826.093384 433.403015,822.365112 425.343964,822.612488 
	C417.205414,822.862305 411.113403,826.546448 407.697052,834.275513 
	C407.166168,835.476562 405.575317,836.978516 404.432159,837.015137 
	C396.828400,837.258728 389.213043,837.141479 380.209381,837.141479 
	C400.632507,815.216736 422.935883,797.726135 447.805573,782.816528 
z"/>
<path fill="#287B63" opacity="1.000000" stroke="none" 
	d="
M358.230713,1112.530518 
	C358.489777,1105.744873 361.213562,1101.896729 366.067474,1100.982300 
	C371.130859,1100.028442 376.010010,1102.819458 377.569550,1107.562134 
	C379.009033,1111.939575 376.734558,1117.300415 372.524658,1119.452393 
	C367.997650,1121.766724 362.698608,1120.395142 359.771210,1116.063721 
	C359.130066,1115.115234 358.779480,1113.970459 358.230713,1112.530518 
z"/>
<path fill="#297E65" opacity="1.000000" stroke="none" 
	d="
M424.466827,832.233154 
	C430.670197,831.255371 435.353790,836.363586 435.933624,840.117554 
	C436.592560,844.383057 433.885437,849.234009 429.702209,851.015625 
	C425.472870,852.816895 420.513306,851.352966 417.769653,847.493408 
	C413.780273,841.881531 416.478241,835.385620 424.466827,832.233154 
z"/>
<path fill="#297E65" opacity="1.000000" stroke="none" 
	d="
M540.394653,1186.268799 
	C544.708374,1189.594971 546.306763,1193.440063 544.099670,1198.273438 
	C542.208679,1202.414551 537.827942,1204.720825 533.451538,1203.820801 
	C529.183228,1202.942871 526.310425,1200.465576 525.510071,1195.985840 
	C524.232056,1188.832275 532.389282,1181.703369 540.394653,1186.268799 
z"/>
<path fill="#297E65" opacity="1.000000" stroke="none" 
	d="
M450.179718,1154.748169 
	C447.285431,1150.561157 447.069122,1146.664062 450.164368,1142.962891 
	C452.814789,1139.793701 456.217224,1138.192017 460.362122,1139.502808 
	C464.544678,1140.825439 467.141052,1143.735107 467.439636,1148.214478 
	C467.708221,1152.243530 465.924744,1155.373047 462.294830,1157.156860 
	C457.905884,1159.313599 453.908295,1158.415527 450.179718,1154.748169 
z"/>
<path fill="#297E65" opacity="1.000000" stroke="none" 
	d="
M426.355499,1182.459717 
	C430.935638,1185.399780 432.905121,1189.166138 431.095093,1194.109253 
	C429.498627,1198.469116 426.084900,1200.701050 421.414215,1200.440308 
	C416.734070,1200.179077 413.137939,1197.636353 412.759308,1193.021362 
	C412.519928,1190.103516 413.818970,1186.510132 415.615265,1184.107300 
	C418.130859,1180.742554 422.122955,1180.485840 426.355499,1182.459717 
z"/>
<path fill="#297E65" opacity="1.000000" stroke="none" 
	d="
M361.033386,991.983032 
	C360.518341,997.512329 357.529449,1000.481262 352.660339,1001.499207 
	C348.692505,1002.328674 345.434357,1000.781921 343.281494,997.429504 
	C341.052216,993.957886 340.809052,990.212219 343.233704,986.709839 
	C345.609802,983.277405 349.003815,981.828735 353.161865,982.683594 
	C357.966217,983.671448 360.582611,986.694214 361.033386,991.983032 
z"/>
<path fill="#297E65" opacity="1.000000" stroke="none" 
	d="
M544.112915,813.825195 
	C540.235840,819.438843 535.661804,821.066345 530.900818,818.837402 
	C526.844238,816.938171 524.522217,812.325562 525.538147,808.184570 
	C526.846680,802.850769 531.877258,799.720398 537.284424,800.875122 
	C542.880554,802.070190 545.664612,807.099609 544.112915,813.825195 
z"/>
<path fill="#287B63" opacity="1.000000" stroke="none" 
	d="
M385.687256,921.824707 
	C378.787628,918.176331 376.698822,912.541382 380.021393,907.486450 
	C383.153320,902.721558 389.508606,901.499634 394.009918,904.973877 
	C397.686371,907.811340 398.932373,911.584351 397.345642,916.053528 
	C395.711060,920.657532 392.367828,922.354858 385.687256,921.824707 
z"/>
<path fill="#237C62" opacity="1.000000" stroke="none" 
	d="
M1560.851685,1036.727783 
	C1566.952026,1034.684448 1572.680664,1031.678833 1578.585693,1031.279419 
	C1592.848755,1030.314575 1607.193970,1030.561646 1621.506592,1030.345947 
	C1622.133423,1030.336548 1622.764160,1030.582520 1623.372803,1030.705444 
	C1625.488525,1046.572388 1624.684570,1061.471313 1609.962524,1071.337280 
	C1595.613159,1080.953613 1579.954102,1082.198120 1564.364868,1075.065552 
	C1548.970825,1068.022217 1547.347534,1048.556519 1560.851685,1036.727783 
z"/>
<path fill="#237C62" opacity="1.000000" stroke="none" 
	d="
M1940.878662,1948.724854 
	C1940.943848,1954.916260 1940.943848,1960.677979 1940.943848,1966.038818 
	C1935.838135,1966.652588 1931.375366,1967.409058 1926.883789,1967.670044 
	C1921.945312,1967.957031 1918.371338,1964.802612 1917.886963,1960.260864 
	C1917.374634,1955.459839 1919.765503,1951.967896 1924.874390,1951.032715 
	C1927.712280,1950.513062 1930.723511,1950.939575 1933.704468,1950.939575 
	C1933.124023,1946.029053 1930.097168,1944.587036 1925.168701,1947.045044 
	C1922.273804,1948.489014 1920.621094,1947.979370 1919.129639,1945.462402 
	C1925.808716,1937.597656 1937.083130,1939.140747 1940.878662,1948.724854 
M1925.743652,1961.809570 
	C1931.307983,1963.165771 1933.608887,1961.689575 1934.035034,1955.365112 
	C1931.066528,1955.748657 1928.222656,1955.825684 1925.629272,1956.671021 
	C1925.039429,1956.863403 1925.316406,1959.715332 1925.743652,1961.809570 
z"/>
<path fill="#297E65" opacity="1.000000" stroke="none" 
	d="
M1946.976562,1957.939453 
	C1946.984253,1953.116821 1946.766113,1948.764771 1947.149292,1944.466431 
	C1947.252441,1943.308350 1949.182617,1941.470947 1950.272339,1941.472168 
	C1951.435913,1941.473511 1953.551392,1943.234619 1953.603760,1944.307861 
	C1953.919800,1950.790283 1953.895996,1957.299194 1953.722656,1963.792236 
	C1953.587158,1968.861694 1950.075684,1966.498535 1946.976685,1966.661865 
	C1946.976685,1963.669922 1946.976685,1961.050049 1946.976562,1957.939453 
z"/>
<path fill="#297E65" opacity="1.000000" stroke="none" 
	d="
M1946.184570,1934.766724 
	C1947.645752,1932.991699 1948.969116,1931.144775 1950.751831,1930.405396 
	C1951.402954,1930.135376 1953.937256,1932.362305 1954.165771,1933.697632 
	C1954.390869,1935.012939 1953.153076,1937.302856 1951.906128,1937.998779 
	C1949.121704,1939.552734 1947.285889,1937.782837 1946.184570,1934.766724 
z"/>
<path fill="#F1FBF8" opacity="1.000000" stroke="none" 
	d="
M734.653198,959.583618 
	C736.925659,968.226562 737.025269,976.462708 734.245728,984.576050 
	C733.348145,987.195984 734.040894,988.687378 736.091248,990.506042 
	C752.759033,1005.290894 755.621094,1028.084839 743.504089,1047.052979 
	C742.623230,1048.432007 742.217041,1050.441284 742.353760,1052.094360 
	C744.531006,1078.416870 726.216980,1102.036621 700.098694,1105.876831 
	C695.477295,1106.556274 693.623047,1108.324341 692.016418,1112.658081 
	C684.668213,1132.478394 671.296875,1146.042480 649.654907,1149.060913 
	C620.073364,1153.186523 595.362671,1131.921875 595.089294,1102.029297 
	C594.731262,1062.889404 594.967346,1023.744141 594.955933,984.601196 
	C594.949402,962.447937 594.646545,940.289246 595.037109,918.142822 
	C595.574280,887.682495 628.314819,866.408997 656.493042,877.917847 
	C665.950256,881.780518 672.995850,888.283875 677.738159,897.404541 
	C678.610474,899.082336 680.467041,900.776672 682.237244,901.375244 
	C695.783508,905.955627 705.074463,914.616699 709.427551,928.411865 
	C709.819824,929.654907 710.976746,930.979675 712.135559,931.607788 
	C723.427124,937.728027 730.620850,947.106812 734.653198,959.583618 
M661.786194,894.708984 
	C650.737793,885.164001 638.405762,884.052124 625.446960,889.825562 
	C613.741211,895.040710 605.802490,908.483582 606.593140,922.162048 
	C613.067566,921.149780 619.449402,920.215698 625.806030,919.133484 
	C629.426819,918.517029 632.851135,918.381165 635.300964,921.720459 
	C637.412842,924.598938 637.932739,928.132263 635.126160,930.284790 
	C632.825867,932.049011 628.411377,933.875244 626.505005,932.824280 
	C619.867981,929.165710 613.284851,931.516663 606.548828,930.855042 
	C606.548828,941.493347 606.548828,951.568054 606.548828,962.179810 
	C612.822693,962.179810 618.797363,962.395935 624.741150,962.061462 
	C626.792847,961.945984 629.243835,960.942993 630.692566,959.514160 
	C636.145935,954.135620 641.433533,948.562744 646.431091,942.759399 
	C648.947998,939.836853 651.578857,938.824036 655.415222,938.741943 
	C661.884155,938.603638 668.542236,940.415466 674.869385,936.605957 
	C676.352722,935.712891 680.737976,937.323730 682.027588,939.077332 
	C683.313110,940.825317 683.415649,944.962708 682.157654,946.658386 
	C680.739868,948.569519 677.221252,949.783569 674.620789,949.775940 
	C669.244080,949.760254 663.880432,948.478088 658.489807,948.265381 
	C656.673828,948.193787 654.371521,949.353271 653.013916,950.685974 
	C647.190002,956.403442 641.506226,962.278870 636.043274,968.341736 
	C633.718689,970.921631 631.331970,971.995728 627.849548,971.864685 
	C620.782104,971.598755 613.697693,971.785278 606.807861,971.785278 
	C606.807861,982.379028 606.807861,992.139709 606.807861,1002.560425 
	C611.927063,1002.560425 616.735046,1002.340576 621.511169,1002.636169 
	C624.817444,1002.840820 626.445862,1001.660889 628.004639,998.724365 
	C634.793945,985.934204 652.894836,984.041748 660.600769,996.251343 
	C664.839600,1002.967651 669.457642,1003.318604 675.623657,1002.997253 
	C677.951355,1002.875977 680.296082,1003.047913 682.619263,1002.887085 
	C683.708618,1002.811707 685.147217,1002.596802 685.774597,1001.876465 
	C689.757263,997.303650 693.764648,992.723328 697.338806,987.834717 
	C699.432434,984.971069 701.913757,982.733948 705.156738,984.065857 
	C707.519836,985.036438 710.445618,987.703491 710.695923,989.891541 
	C710.947327,992.089478 708.426331,994.819153 706.676697,996.952026 
	C705.601501,998.262756 703.136902,998.525757 702.247742,999.882751 
	C694.556030,1011.621765 683.562134,1014.808289 670.369385,1012.711914 
	C669.718689,1012.608521 668.915222,1012.460144 668.394531,1012.734314 
	C666.844238,1013.550598 664.755737,1014.216553 664.020935,1015.564575 
	C659.982422,1022.973083 654.049561,1027.039429 645.531555,1026.980103 
	C636.998962,1026.920654 631.052490,1022.845520 627.377563,1015.187134 
	C626.805786,1013.995605 625.596130,1012.294495 624.615173,1012.248779 
	C618.711487,1011.973267 612.788452,1012.111938 606.654907,1012.111938 
	C606.654907,1019.729675 606.654907,1026.628906 606.654907,1033.643311 
	C607.802856,1033.756592 608.614136,1033.898438 609.426819,1033.907349 
	C616.077637,1033.980347 623.566956,1032.135742 629.147949,1034.607422 
	C634.925354,1037.166138 638.836487,1043.919434 643.594116,1048.808594 
	C645.839966,1051.116699 648.156555,1053.355835 650.193298,1055.380127 
	C651.255798,1054.841797 651.468689,1054.806763 651.525330,1054.693481 
	C651.892578,1053.958496 652.226135,1053.206909 652.570251,1052.460449 
	C655.668823,1045.739502 660.721619,1041.553955 668.219238,1040.904053 
	C676.625610,1040.175415 683.159485,1043.483765 687.612610,1050.680176 
	C690.965210,1056.098145 698.499878,1057.088745 702.137756,1051.681641 
	C708.634766,1042.024536 716.895264,1037.610718 728.470825,1039.864136 
	C732.574097,1040.662964 735.170715,1038.639160 736.674683,1035.045532 
	C737.632507,1032.756958 738.676208,1030.416992 739.082581,1027.999512 
	C741.431091,1014.029236 735.120361,1003.882385 724.466125,995.759949 
	C722.664551,994.386475 720.805176,993.088684 719.099670,991.848450 
	C719.411743,991.004578 719.507080,990.683350 719.645447,990.381958 
	C730.506348,966.714233 724.660767,950.406372 701.318237,938.752747 
	C700.046509,938.117920 698.891907,936.134094 698.692749,934.643250 
	C697.207886,923.529175 690.883240,916.019775 680.599426,912.875977 
	C673.500610,910.705750 668.024536,908.179810 666.063782,900.433289 
	C665.574585,898.500366 663.589355,896.946106 661.786194,894.708984 
M676.732300,1078.821777 
	C664.285339,1080.324341 658.335571,1077.028809 652.800049,1065.784546 
	C652.336853,1064.843750 650.842285,1063.648193 650.008728,1063.774170 
	C643.900513,1064.697876 640.519592,1060.836792 637.065063,1056.913574 
	C633.765503,1053.166504 630.412231,1049.465454 627.026123,1045.796265 
	C626.151917,1044.848999 625.094177,1043.411621 624.072510,1043.369385 
	C618.348877,1043.133423 612.610413,1043.255737 606.709961,1043.255737 
	C606.709961,1054.296997 606.709961,1064.388184 606.709961,1075.012329 
	C612.428162,1075.012329 617.900757,1074.701782 623.310242,1075.151001 
	C625.797791,1075.357666 628.722900,1076.477173 630.476807,1078.182739 
	C635.837463,1083.396484 640.844421,1088.993164 645.744263,1094.652466 
	C647.918762,1097.163940 650.265991,1098.065796 653.524353,1097.950562 
	C665.876465,1097.513184 678.150085,1097.295288 690.536987,1095.833984 
	C705.192383,1094.104858 716.764221,1088.847290 725.192444,1077.077637 
	C730.991455,1068.979736 732.922974,1059.688232 731.590576,1049.619141 
	C724.005066,1049.171387 716.682922,1047.676392 712.118347,1055.922363 
	C708.272095,1062.870850 702.135437,1065.723633 694.144165,1064.251221 
	C691.569275,1063.776855 689.934204,1064.624390 688.920715,1067.439697 
	C686.965576,1072.870605 682.989319,1076.568726 676.732300,1078.821777 
M663.576172,1107.369629 
	C658.255615,1107.437378 652.924072,1107.722900 647.620239,1107.456909 
	C645.721436,1107.361938 643.415833,1106.392700 642.108398,1105.038208 
	C636.340637,1099.062622 630.900146,1092.772217 625.255676,1086.675049 
	C624.450317,1085.805054 623.196594,1084.858887 622.117249,1084.817627 
	C617.015869,1084.623169 611.903015,1084.730835 606.714478,1084.730835 
	C605.230286,1102.884644 605.140625,1120.089600 621.656555,1131.547119 
	C633.941895,1140.069824 647.288391,1140.297363 660.422791,1133.589844 
	C670.984131,1128.196533 677.945618,1119.543457 681.391479,1107.365356 
	C675.177917,1107.365356 669.866760,1107.365356 663.576172,1107.369629 
M661.599854,1062.696167 
	C662.340271,1063.980835 662.888428,1065.437500 663.856079,1066.518799 
	C667.138123,1070.186157 672.511047,1070.688232 676.547668,1067.873535 
	C680.688110,1064.986450 681.963074,1059.791382 679.574707,1055.540771 
	C677.238220,1051.382568 671.924805,1049.327393 667.499268,1051.167236 
	C662.775146,1053.131226 660.750305,1056.844727 661.599854,1062.696167 
M650.907043,1015.766174 
	C655.538635,1011.733948 656.666504,1007.466125 654.246887,1003.127869 
	C652.096313,999.271973 647.313110,997.253601 643.150146,998.445312 
	C637.965393,999.929565 634.971313,1005.203674 636.533142,1010.101318 
	C638.375977,1015.880188 643.502380,1018.132568 650.907043,1015.766174 
z"/>
<path fill="#F1FBF8" opacity="1.000000" stroke="none" 
	d="
M485.202057,1115.707031 
	C484.712830,1105.854370 479.585541,1100.072144 471.953125,1094.588989 
	C461.763489,1087.268677 456.321533,1076.230347 454.810028,1063.500488 
	C454.659912,1062.236206 453.376312,1060.501709 452.207855,1060.050903 
	C419.288910,1047.353394 412.693604,1001.297607 438.495422,976.615295 
	C441.748596,973.503235 442.337891,970.778503 441.715179,966.666870 
	C438.658539,946.485168 449.593048,928.223999 468.534576,921.028137 
	C469.896118,920.510925 471.307312,918.765442 471.717285,917.314697 
	C475.356384,904.436646 483.713043,896.126709 495.997681,891.377808 
	C497.463837,890.811035 499.247375,890.015991 499.990570,888.786743 
	C510.027069,872.185852 537.274597,868.010681 554.362061,877.426514 
	C570.240784,886.176208 578.836365,899.792175 578.880310,918.066956 
	C579.025818,978.564697 578.996155,1039.062866 578.946350,1099.560913 
	C578.925354,1125.048462 563.924805,1143.818848 540.856445,1148.191162 
	C519.019592,1152.329956 493.161499,1140.424561 485.202057,1115.707031 
M437.684204,1013.063843 
	C436.429108,1013.202271 435.174011,1013.340637 433.974670,1013.472839 
	C433.444763,1029.086426 444.223663,1046.076782 456.130676,1048.727051 
	C457.869293,1044.980225 459.142181,1040.880249 461.535828,1037.597534 
	C462.926483,1035.690430 466.189911,1034.061035 468.474426,1034.223633 
	C470.447601,1034.363770 472.916016,1036.876953 473.925415,1038.946167 
	C475.283905,1041.730835 473.885712,1044.330933 471.067810,1046.092896 
	C469.902374,1046.821533 468.821533,1048.100342 468.298676,1049.373901 
	C465.112305,1057.135864 464.853149,1064.948486 468.735168,1072.568359 
	C470.147614,1075.340820 471.981110,1077.898682 473.896820,1080.998291 
	C475.559296,1078.214966 476.367737,1076.345703 477.619110,1074.846069 
	C490.374237,1059.559204 490.394440,1059.576172 510.195801,1059.868164 
	C510.529083,1059.873047 510.902100,1059.979492 511.189423,1059.867188 
	C513.378662,1059.010498 516.055542,1058.641602 517.641785,1057.133545 
	C524.522461,1050.591675 530.939148,1043.559692 537.858826,1037.061890 
	C539.657166,1035.373169 542.626038,1034.242676 545.121887,1034.114502 
	C552.550842,1033.733032 560.012024,1033.977661 567.661682,1033.977661 
	C567.661682,1026.376831 567.661682,1019.311096 567.661682,1011.858337 
	C555.393372,1011.858337 543.435547,1011.992126 531.486084,1011.736755 
	C529.299072,1011.690002 526.562378,1010.622559 525.068420,1009.072815 
	C511.769714,995.277527 498.713318,981.248840 485.513153,967.357666 
	C484.460907,966.250244 482.961639,965.205383 481.510529,964.906494 
	C476.981262,963.973877 474.250641,961.495850 474.129028,956.844421 
	C474.038574,953.384705 475.559937,950.670227 479.301331,949.916687 
	C483.223114,949.126892 487.183685,951.700623 489.093445,956.022339 
	C489.812897,957.650330 490.500641,959.434265 491.685364,960.692932 
	C504.020477,973.798340 516.431946,986.832275 528.899536,999.811829 
	C529.966736,1000.922852 531.577332,1002.193970 532.955200,1002.217163 
	C544.407043,1002.409851 555.863525,1002.326355 567.586792,1002.326355 
	C567.586792,991.779724 567.586792,981.875977 567.586792,970.485046 
	C557.168762,971.514893 547.049011,972.350525 536.980591,973.599854 
	C533.455017,974.037354 529.762024,974.511353 528.094360,971.167969 
	C526.976685,968.927002 527.006104,965.244690 528.101868,962.967285 
	C529.859619,959.314270 533.732178,959.236450 537.315613,960.523987 
	C547.365234,964.134888 557.542114,961.178650 567.943420,962.137085 
	C567.943420,946.093323 568.610413,930.905945 567.793030,915.798767 
	C566.438904,890.771240 536.853638,875.637085 516.306274,889.115601 
	C514.597717,890.236450 513.352295,892.781250 512.869324,894.888550 
	C512.095215,898.265930 510.889404,900.396423 507.043335,900.298889 
	C505.408234,900.257446 503.732819,900.676208 502.120056,901.068298 
	C492.545471,903.396179 483.860718,912.485413 483.366028,920.658081 
	C483.854309,920.731934 484.344879,920.865051 484.837128,920.871582 
	C490.503143,920.946777 496.174683,920.877502 501.833374,921.116516 
	C504.647797,921.235413 506.209534,920.438477 507.603943,917.760803 
	C511.972290,909.372253 520.862244,905.400757 529.364441,907.544800 
	C538.011108,909.725220 544.086792,917.542175 544.171509,926.595398 
	C544.252930,935.297852 538.465271,942.889465 530.137085,945.004517 
	C521.072937,947.306396 511.785919,943.581665 507.583435,935.417480 
	C505.951569,932.247314 504.388397,930.626099 500.540649,930.830505 
	C493.894623,931.183594 487.213348,930.868652 480.546814,930.841797 
	C468.632721,930.793823 460.347992,936.534180 455.089264,946.955383 
	C450.631866,955.788696 450.635895,964.979492 453.658966,974.157715 
	C454.751892,977.475952 454.137787,979.168884 451.148651,980.989014 
	C442.835846,986.050964 438.023071,993.820923 434.836090,1003.388367 
	C436.874573,1003.541321 438.470856,1003.754761 440.068481,1003.765259 
	C448.567688,1003.821045 457.072113,1003.995422 465.563934,1003.752380 
	C468.363312,1003.672241 471.235077,1002.738098 473.887238,1001.712280 
	C477.571930,1000.287170 480.804413,1000.466064 483.396088,1003.538208 
	C485.776733,1006.360107 486.238312,1009.630310 483.934387,1012.711731 
	C481.530487,1015.926636 478.263855,1016.247131 474.515778,1015.141968 
	C471.131226,1014.144043 467.623657,1013.094482 464.142120,1012.987488 
	C455.652222,1012.726685 447.145966,1012.998840 437.684204,1013.063843 
M565.920288,1074.604980 
	C566.550049,1073.969849 567.720459,1073.341187 567.728333,1072.698486 
	C567.845703,1063.099121 567.809509,1053.497803 567.809509,1043.947021 
	C554.841003,1042.448242 542.429810,1041.382568 534.463074,1054.387329 
	C533.869019,1055.357056 532.745178,1055.988525 532.065491,1056.921509 
	C524.913635,1066.738647 515.557495,1071.239746 503.342590,1068.983398 
	C502.859894,1068.894287 502.280304,1068.827271 501.855988,1069.008179 
	C499.428986,1070.043213 496.596558,1070.663574 494.714905,1072.338379 
	C489.633331,1076.861206 486.056427,1083.151489 477.709259,1085.384399 
	C482.959595,1088.910034 487.416565,1091.750732 491.709137,1094.821045 
	C498.082947,1099.380005 505.459808,1098.824951 512.707031,1099.738403 
	C522.033203,1100.913818 525.753479,1093.921021 531.097046,1089.061401 
	C531.220154,1088.949463 531.358643,1088.842896 531.447021,1088.706055 
	C539.423767,1076.357300 550.752441,1072.016479 565.920288,1074.604980 
M551.149536,1083.993286 
	C549.805237,1084.803955 548.223145,1085.380249 547.155518,1086.463623 
	C540.611572,1093.104614 534.355347,1100.040283 527.609375,1106.464111 
	C525.678345,1108.302856 522.484375,1109.570801 519.795044,1109.715088 
	C511.900757,1110.138916 503.969086,1109.866211 495.325989,1109.866211 
	C496.669006,1112.903931 497.625793,1115.531250 498.940552,1117.965332 
	C506.290497,1131.572388 520.229980,1138.973389 536.052063,1137.131836 
	C550.954895,1135.397217 561.958618,1127.395874 566.044250,1112.994751 
	C568.598938,1103.989868 567.924927,1094.068970 568.746460,1083.984253 
	C562.279846,1083.984253 557.154053,1083.984253 551.149536,1083.993286 
M518.986267,933.650391 
	C522.385620,936.044922 526.339905,937.144836 529.526672,934.301331 
	C531.869873,932.210693 533.901245,928.813782 534.324951,925.756836 
	C534.932922,921.370117 531.825012,918.348450 527.583557,917.140015 
	C523.302246,915.920227 519.694519,917.264832 517.169373,920.969727 
	C514.199768,925.326782 514.971497,929.395020 518.986267,933.650391 
z"/>
<path fill="#8EBDB0" opacity="1.000000" stroke="none" 
	d="
M1925.468994,1961.576172 
	C1925.316406,1959.715332 1925.039429,1956.863403 1925.629272,1956.671021 
	C1928.222656,1955.825684 1931.066528,1955.748657 1934.035034,1955.365112 
	C1933.608887,1961.689575 1931.307983,1963.165771 1925.468994,1961.576172 
z"/>
<path fill="#267D64" opacity="1.000000" stroke="none" 
	d="
M662.038940,894.963379 
	C663.589355,896.946106 665.574585,898.500366 666.063782,900.433289 
	C668.024536,908.179810 673.500610,910.705750 680.599426,912.875977 
	C690.883240,916.019775 697.207886,923.529175 698.692749,934.643250 
	C698.891907,936.134094 700.046509,938.117920 701.318237,938.752747 
	C724.660767,950.406372 730.506348,966.714233 719.645447,990.381958 
	C719.507080,990.683350 719.411743,991.004578 719.099670,991.848450 
	C720.805176,993.088684 722.664551,994.386475 724.466125,995.759949 
	C735.120361,1003.882385 741.431091,1014.029236 739.082581,1027.999512 
	C738.676208,1030.416992 737.632507,1032.756958 736.674683,1035.045532 
	C735.170715,1038.639160 732.574097,1040.662964 728.470825,1039.864136 
	C716.895264,1037.610718 708.634766,1042.024536 702.137756,1051.681641 
	C698.499878,1057.088745 690.965210,1056.098145 687.612610,1050.680176 
	C683.159485,1043.483765 676.625610,1040.175415 668.219238,1040.904053 
	C660.721619,1041.553955 655.668823,1045.739502 652.570251,1052.460449 
	C652.226135,1053.206909 651.892578,1053.958496 651.525330,1054.693481 
	C651.468689,1054.806763 651.255798,1054.841797 650.193298,1055.380127 
	C648.156555,1053.355835 645.839966,1051.116699 643.594116,1048.808594 
	C638.836487,1043.919434 634.925354,1037.166138 629.147949,1034.607422 
	C623.566956,1032.135742 616.077637,1033.980347 609.426819,1033.907349 
	C608.614136,1033.898438 607.802856,1033.756592 606.654907,1033.643311 
	C606.654907,1026.628906 606.654907,1019.729675 606.654907,1012.111938 
	C612.788452,1012.111938 618.711487,1011.973267 624.615173,1012.248779 
	C625.596130,1012.294495 626.805786,1013.995605 627.377563,1015.187134 
	C631.052490,1022.845520 636.998962,1026.920654 645.531555,1026.980103 
	C654.049561,1027.039429 659.982422,1022.973083 664.020935,1015.564575 
	C664.755737,1014.216553 666.844238,1013.550598 668.394531,1012.734314 
	C668.915222,1012.460144 669.718689,1012.608521 670.369385,1012.711914 
	C683.562134,1014.808289 694.556030,1011.621765 702.247742,999.882751 
	C703.136902,998.525757 705.601501,998.262756 706.676697,996.952026 
	C708.426331,994.819153 710.947327,992.089478 710.695923,989.891541 
	C710.445618,987.703491 707.519836,985.036438 705.156738,984.065857 
	C701.913757,982.733948 699.432434,984.971069 697.338806,987.834717 
	C693.764648,992.723328 689.757263,997.303650 685.774597,1001.876465 
	C685.147217,1002.596802 683.708618,1002.811707 682.619263,1002.887085 
	C680.296082,1003.047913 677.951355,1002.875977 675.623657,1002.997253 
	C669.457642,1003.318604 664.839600,1002.967651 660.600769,996.251343 
	C652.894836,984.041748 634.793945,985.934204 628.004639,998.724365 
	C626.445862,1001.660889 624.817444,1002.840820 621.511169,1002.636169 
	C616.735046,1002.340576 611.927063,1002.560425 606.807861,1002.560425 
	C606.807861,992.139709 606.807861,982.379028 606.807861,971.785278 
	C613.697693,971.785278 620.782104,971.598755 627.849548,971.864685 
	C631.331970,971.995728 633.718689,970.921631 636.043274,968.341736 
	C641.506226,962.278870 647.190002,956.403442 653.013916,950.685974 
	C654.371521,949.353271 656.673828,948.193787 658.489807,948.265381 
	C663.880432,948.478088 669.244080,949.760254 674.620789,949.775940 
	C677.221252,949.783569 680.739868,948.569519 682.157654,946.658386 
	C683.415649,944.962708 683.313110,940.825317 682.027588,939.077332 
	C680.737976,937.323730 676.352722,935.712891 674.869385,936.605957 
	C668.542236,940.415466 661.884155,938.603638 655.415222,938.741943 
	C651.578857,938.824036 648.947998,939.836853 646.431091,942.759399 
	C641.433533,948.562744 636.145935,954.135620 630.692566,959.514160 
	C629.243835,960.942993 626.792847,961.945984 624.741150,962.061462 
	C618.797363,962.395935 612.822693,962.179810 606.548828,962.179810 
	C606.548828,951.568054 606.548828,941.493347 606.548828,930.855042 
	C613.284851,931.516663 619.867981,929.165710 626.505005,932.824280 
	C628.411377,933.875244 632.825867,932.049011 635.126160,930.284790 
	C637.932739,928.132263 637.412842,924.598938 635.300964,921.720459 
	C632.851135,918.381165 629.426819,918.517029 625.806030,919.133484 
	C619.449402,920.215698 613.067566,921.149780 606.593140,922.162048 
	C605.802490,908.483582 613.741211,895.040710 625.446960,889.825562 
	C638.405762,884.052124 650.737793,885.164001 662.038940,894.963379 
z"/>
<path fill="#287B63" opacity="1.000000" stroke="none" 
	d="
M677.130676,1078.704224 
	C682.989319,1076.568726 686.965576,1072.870605 688.920715,1067.439697 
	C689.934204,1064.624390 691.569275,1063.776855 694.144165,1064.251221 
	C702.135437,1065.723633 708.272095,1062.870850 712.118347,1055.922363 
	C716.682922,1047.676392 724.005066,1049.171387 731.590576,1049.619141 
	C732.922974,1059.688232 730.991455,1068.979736 725.192444,1077.077637 
	C716.764221,1088.847290 705.192383,1094.104858 690.536987,1095.833984 
	C678.150085,1097.295288 665.876465,1097.513184 653.524353,1097.950562 
	C650.265991,1098.065796 647.918762,1097.163940 645.744263,1094.652466 
	C640.844421,1088.993164 635.837463,1083.396484 630.476807,1078.182739 
	C628.722900,1076.477173 625.797791,1075.357666 623.310242,1075.151001 
	C617.900757,1074.701782 612.428162,1075.012329 606.709961,1075.012329 
	C606.709961,1064.388184 606.709961,1054.296997 606.709961,1043.255737 
	C612.610413,1043.255737 618.348877,1043.133423 624.072510,1043.369385 
	C625.094177,1043.411621 626.151917,1044.848999 627.026123,1045.796265 
	C630.412231,1049.465454 633.765503,1053.166504 637.065063,1056.913574 
	C640.519592,1060.836792 643.900513,1064.697876 650.008728,1063.774170 
	C650.842285,1063.648193 652.336853,1064.843750 652.800049,1065.784546 
	C658.335571,1077.028809 664.285339,1080.324341 677.130676,1078.704224 
z"/>
<path fill="#287B63" opacity="1.000000" stroke="none" 
	d="
M664.065918,1107.367432 
	C669.866760,1107.365356 675.177917,1107.365356 681.391479,1107.365356 
	C677.945618,1119.543457 670.984131,1128.196533 660.422791,1133.589844 
	C647.288391,1140.297363 633.941895,1140.069824 621.656555,1131.547119 
	C605.140625,1120.089600 605.230286,1102.884644 606.714478,1084.730835 
	C611.903015,1084.730835 617.015869,1084.623169 622.117249,1084.817627 
	C623.196594,1084.858887 624.450317,1085.805054 625.255676,1086.675049 
	C630.900146,1092.772217 636.340637,1099.062622 642.108398,1105.038208 
	C643.415833,1106.392700 645.721436,1107.361938 647.620239,1107.456909 
	C652.924072,1107.722900 658.255615,1107.437378 664.065918,1107.367432 
z"/>
<path fill="#297E65" opacity="1.000000" stroke="none" 
	d="
M661.486694,1062.325317 
	C660.750305,1056.844727 662.775146,1053.131226 667.499268,1051.167236 
	C671.924805,1049.327393 677.238220,1051.382568 679.574707,1055.540771 
	C681.963074,1059.791382 680.688110,1064.986450 676.547668,1067.873535 
	C672.511047,1070.688232 667.138123,1070.186157 663.856079,1066.518799 
	C662.888428,1065.437500 662.340271,1063.980835 661.486694,1062.325317 
z"/>
<path fill="#297E65" opacity="1.000000" stroke="none" 
	d="
M650.548523,1015.933960 
	C643.502380,1018.132568 638.375977,1015.880188 636.533142,1010.101318 
	C634.971313,1005.203674 637.965393,999.929565 643.150146,998.445312 
	C647.313110,997.253601 652.096313,999.271973 654.246887,1003.127869 
	C656.666504,1007.466125 655.538635,1011.733948 650.548523,1015.933960 
z"/>
<path fill="#257B62" opacity="1.000000" stroke="none" 
	d="
M438.165253,1013.060059 
	C447.145966,1012.998840 455.652222,1012.726685 464.142120,1012.987488 
	C467.623657,1013.094482 471.131226,1014.144043 474.515778,1015.141968 
	C478.263855,1016.247131 481.530487,1015.926636 483.934387,1012.711731 
	C486.238312,1009.630310 485.776733,1006.360107 483.396088,1003.538208 
	C480.804413,1000.466064 477.571930,1000.287170 473.887238,1001.712280 
	C471.235077,1002.738098 468.363312,1003.672241 465.563934,1003.752380 
	C457.072113,1003.995422 448.567688,1003.821045 440.068481,1003.765259 
	C438.470856,1003.754761 436.874573,1003.541321 434.836090,1003.388367 
	C438.023071,993.820923 442.835846,986.050964 451.148651,980.989014 
	C454.137787,979.168884 454.751892,977.475952 453.658966,974.157715 
	C450.635895,964.979492 450.631866,955.788696 455.089264,946.955383 
	C460.347992,936.534180 468.632721,930.793823 480.546814,930.841797 
	C487.213348,930.868652 493.894623,931.183594 500.540649,930.830505 
	C504.388397,930.626099 505.951569,932.247314 507.583435,935.417480 
	C511.785919,943.581665 521.072937,947.306396 530.137085,945.004517 
	C538.465271,942.889465 544.252930,935.297852 544.171509,926.595398 
	C544.086792,917.542175 538.011108,909.725220 529.364441,907.544800 
	C520.862244,905.400757 511.972290,909.372253 507.603943,917.760803 
	C506.209534,920.438477 504.647797,921.235413 501.833374,921.116516 
	C496.174683,920.877502 490.503143,920.946777 484.837128,920.871582 
	C484.344879,920.865051 483.854309,920.731934 483.366028,920.658081 
	C483.860718,912.485413 492.545471,903.396179 502.120056,901.068298 
	C503.732819,900.676208 505.408234,900.257446 507.043335,900.298889 
	C510.889404,900.396423 512.095215,898.265930 512.869324,894.888550 
	C513.352295,892.781250 514.597717,890.236450 516.306274,889.115601 
	C536.853638,875.637085 566.438904,890.771240 567.793030,915.798767 
	C568.610413,930.905945 567.943420,946.093323 567.943420,962.137085 
	C557.542114,961.178650 547.365234,964.134888 537.315613,960.523987 
	C533.732178,959.236450 529.859619,959.314270 528.101868,962.967285 
	C527.006104,965.244690 526.976685,968.927002 528.094360,971.167969 
	C529.762024,974.511353 533.455017,974.037354 536.980591,973.599854 
	C547.049011,972.350525 557.168762,971.514893 567.586792,970.485046 
	C567.586792,981.875977 567.586792,991.779724 567.586792,1002.326355 
	C555.863525,1002.326355 544.407043,1002.409851 532.955200,1002.217163 
	C531.577332,1002.193970 529.966736,1000.922852 528.899536,999.811829 
	C516.431946,986.832275 504.020477,973.798340 491.685364,960.692932 
	C490.500641,959.434265 489.812897,957.650330 489.093445,956.022339 
	C487.183685,951.700623 483.223114,949.126892 479.301331,949.916687 
	C475.559937,950.670227 474.038574,953.384705 474.129028,956.844421 
	C474.250641,961.495850 476.981262,963.973877 481.510529,964.906494 
	C482.961639,965.205383 484.460907,966.250244 485.513153,967.357666 
	C498.713318,981.248840 511.769714,995.277527 525.068420,1009.072815 
	C526.562378,1010.622559 529.299072,1011.690002 531.486084,1011.736755 
	C543.435547,1011.992126 555.393372,1011.858337 567.661682,1011.858337 
	C567.661682,1019.311096 567.661682,1026.376831 567.661682,1033.977661 
	C560.012024,1033.977661 552.550842,1033.733032 545.121887,1034.114502 
	C542.626038,1034.242676 539.657166,1035.373169 537.858826,1037.061890 
	C530.939148,1043.559692 524.522461,1050.591675 517.641785,1057.133545 
	C516.055542,1058.641602 513.378662,1059.010498 511.189423,1059.867188 
	C510.902100,1059.979492 510.529083,1059.873047 510.195801,1059.868164 
	C490.394440,1059.576172 490.374237,1059.559204 477.619110,1074.846069 
	C476.367737,1076.345703 475.559296,1078.214966 473.896820,1080.998291 
	C471.981110,1077.898682 470.147614,1075.340820 468.735168,1072.568359 
	C464.853149,1064.948486 465.112305,1057.135864 468.298676,1049.373901 
	C468.821533,1048.100342 469.902374,1046.821533 471.067810,1046.092896 
	C473.885712,1044.330933 475.283905,1041.730835 473.925415,1038.946167 
	C472.916016,1036.876953 470.447601,1034.363770 468.474426,1034.223633 
	C466.189911,1034.061035 462.926483,1035.690430 461.535828,1037.597534 
	C459.142181,1040.880249 457.869293,1044.980225 456.130676,1048.727051 
	C444.223663,1046.076782 433.444763,1029.086426 433.974670,1013.472839 
	C435.174011,1013.340637 436.429108,1013.202271 438.165253,1013.060059 
z"/>
<path fill="#297E65" opacity="1.000000" stroke="none" 
	d="
M565.461975,1074.627930 
	C550.752441,1072.016479 539.423767,1076.357300 531.447021,1088.706055 
	C531.358643,1088.842896 531.220154,1088.949463 531.097046,1089.061401 
	C525.753479,1093.921021 522.033203,1100.913818 512.707031,1099.738403 
	C505.459808,1098.824951 498.082947,1099.380005 491.709137,1094.821045 
	C487.416565,1091.750732 482.959595,1088.910034 477.709259,1085.384399 
	C486.056427,1083.151489 489.633331,1076.861206 494.714905,1072.338379 
	C496.596558,1070.663574 499.428986,1070.043213 501.855988,1069.008179 
	C502.280304,1068.827271 502.859894,1068.894287 503.342590,1068.983398 
	C515.557495,1071.239746 524.913635,1066.738647 532.065491,1056.921509 
	C532.745178,1055.988525 533.869019,1055.357056 534.463074,1054.387329 
	C542.429810,1041.382568 554.841003,1042.448242 567.809509,1043.947021 
	C567.809509,1053.497803 567.845703,1063.099121 567.728333,1072.698486 
	C567.720459,1073.341187 566.550049,1073.969849 565.461975,1074.627930 
z"/>
<path fill="#257B62" opacity="1.000000" stroke="none" 
	d="
M551.588867,1083.988770 
	C557.154053,1083.984253 562.279846,1083.984253 568.746460,1083.984253 
	C567.924927,1094.068970 568.598938,1103.989868 566.044250,1112.994751 
	C561.958618,1127.395874 550.954895,1135.397217 536.052063,1137.131836 
	C520.229980,1138.973389 506.290497,1131.572388 498.940552,1117.965332 
	C497.625793,1115.531250 496.669006,1112.903931 495.325989,1109.866211 
	C503.969086,1109.866211 511.900757,1110.138916 519.795044,1109.715088 
	C522.484375,1109.570801 525.678345,1108.302856 527.609375,1106.464111 
	C534.355347,1100.040283 540.611572,1093.104614 547.155518,1086.463623 
	C548.223145,1085.380249 549.805237,1084.803955 551.588867,1083.988770 
z"/>
<path fill="#297E65" opacity="1.000000" stroke="none" 
	d="
M518.704834,933.394897 
	C514.971497,929.395020 514.199768,925.326782 517.169373,920.969727 
	C519.694519,917.264832 523.302246,915.920227 527.583557,917.140015 
	C531.825012,918.348450 534.932922,921.370117 534.324951,925.756836 
	C533.901245,928.813782 531.869873,932.210693 529.526672,934.301331 
	C526.339905,937.144836 522.385620,936.044922 518.704834,933.394897 
z"/>
</svg>